<?xml version="1.0" encoding="UTF-8" standalone="no"?>
<!-- Created with Inkscape (http://www.inkscape.org/) -->

<svg
   width="114.56223mm"
   height="24.77388mm"
   viewBox="0 0 114.56223 24.77388"
   version="1.1"
   id="svg2293"
   xmlns:inkscape="http://www.inkscape.org/namespaces/inkscape"
   xmlns:sodipodi="http://sodipodi.sourceforge.net/DTD/sodipodi-0.dtd"
   xmlns="http://www.w3.org/2000/svg"
   xmlns:svg="http://www.w3.org/2000/svg">
  <sodipodi:namedview
     id="namedview2295"
     pagecolor="#ffffff"
     bordercolor="#000000"
     borderopacity="0.25"
     inkscape:showpageshadow="2"
     inkscape:pageopacity="0.0"
     inkscape:pagecheckerboard="0"
     inkscape:deskcolor="#d1d1d1"
     inkscape:document-units="mm"
     showgrid="false" />
  <defs
     id="defs2290" />
  <g
     inkscape:label="图层 1"
     inkscape:groupmode="layer"
     id="layer1"
     transform="translate(-19.354701,-85.938276)">
    <path
       fill-rule="nonzero"
       fill="#007dc5"
       fill-opacity="1"
       d="m 91.930894,95.93426 c -0.94809,-0.293522 -1.955437,-0.410658 -3.133658,-0.410658 -2.131826,0 -4.435905,0.876434 -4.435905,3.219097 0,1.814881 1.1796,2.516301 2.779504,3.336231 1.180976,0.58567 1.83141,0.93569 1.83141,1.75562 0,1.11208 -0.945335,1.34497 -2.009178,1.34497 -0.946711,0 -1.83417,-0.17364 -2.837381,-0.46578 v 1.87 c 1.062467,0.23564 2.422592,0.41203 3.487815,0.41203 2.423967,0 4.730806,-0.7593 4.730806,-3.39686 0,-1.93064 -1.183735,-2.74919 -2.841516,-3.50987 -1.18098,-0.523649 -1.772158,-0.877806 -1.772158,-1.580607 0,-0.935686 0.768947,-1.171331 1.772158,-1.171331 0.830958,0 1.599901,0.117133 2.428103,0.412034 z m -9.344477,-0.234269 h -3.429938 l 0.06064,1.754244 v 9.365145 h 3.369302 z m 0.179145,-2.572794 c 0,-0.938446 -0.829579,-1.464857 -1.835546,-1.464857 -1.123103,0 -1.893425,0.526411 -1.893425,1.464857 0,0.935686 0.829578,1.400086 1.893425,1.400086 1.065223,0 1.835546,-0.4644 1.835546,-1.400086 m 15.906696,2.45704 v 1.752865 c -1.41938,0.05926 -1.595769,1.639866 -1.655025,2.984828 h 1.655025 v 1.63987 h -1.655025 c 0,1.40422 0.412034,2.57417 1.655025,3.04408 v 1.93064 c -3.607706,-0.23427 -5.144219,-2.34129 -5.144219,-5.67752 0,-2.986212 1.656404,-5.618262 5.144219,-5.674763 M 74.36642,92.715163 72.060961,103.54103 69.577737,92.715163 h -3.609082 l -2.663748,10.825867 -2.12769,-10.825867 h -3.607704 l 3.372059,14.104217 h 3.963239 l 2.601736,-10.00731 2.247579,10.00731 h 3.905359 l 3.665584,-14.104217 z m 24.305838,9.246637 v -1.63987 h 1.594392 c 0,-1.344962 -0.11576,-2.984828 -1.477259,-2.984828 h -0.117133 v -1.752865 c 0.06063,-0.06064 0.117133,-0.06064 0.232886,-0.06064 4.262276,0 4.734946,3.395486 4.734946,6.438203 z m 0,4.97472 v -1.93064 c 0.352778,0.11714 0.766188,0.17364 1.238853,0.17364 0.949469,0 2.072569,-0.17364 3.194289,-0.46578 v 1.75424 c -1.12172,0.29215 -2.42396,0.52779 -3.782708,0.52779 -0.238403,0 -0.47129,-0.0592 -0.650434,-0.0592 m 12.537392,-7.725286 c -0.11989,0.584288 -0.17777,1.230586 -0.17777,1.874136 0,0.76067 0.0579,1.46209 0.17777,2.16489 z m 0,-7.372505 v 1.754244 c -0.29352,-0.118513 -0.65044,-0.118513 -0.94947,-0.118513 -1.17822,0 -1.29811,0.588423 -1.29811,2.225531 h 1.71428 v 1.754244 h -1.71428 v 9.365145 h -3.37068 v -9.365145 h -1.18512 v -1.754244 h 1.18512 c 0,-2.692686 0.7717,-3.98115 3.72759,-3.98115 0.64906,0 1.35737,0.05926 1.89067,0.119888 m 0,1.754244 v -1.754244 c 0.062,0 0.11713,0 0.23702,0.05926 v 1.752864 c -0.11989,-0.05788 -0.17501,-0.05788 -0.23702,-0.05788 m 5.20347,1.930629 v 1.8135 c -1.83279,0 -2.00918,2.108397 -2.00918,3.689008 0,1.63849 0.11713,4.15341 2.00918,4.15341 v 1.81625 c -3.13504,0 -4.67155,-1.58061 -5.20347,-3.74551 v -4.039026 c 0.59256,-2.222775 2.36609,-3.626997 5.20347,-3.687632 m 0,11.472168 v -1.81625 c 1.95406,0 2.06981,-2.22278 2.06981,-4.15341 0,-1.460719 -0.29628,-3.689008 -2.06981,-3.689008 v -1.8135 h 0.0606 c 3.72346,0 5.4405,2.341287 5.4405,5.618268 0,3.45336 -1.71704,5.8539 -5.50113,5.8539 m 12.36238,1.16995 v 1.87276 c -1.54065,0 -3.0179,-0.23289 -4.43728,-0.52917 v -1.75286 c 1.18235,0.29214 2.54386,0.46853 3.6077,0.46853 0.29353,0 0.59118,0 0.82958,-0.0593 m 0,-12.524982 v 1.696364 c -1.71841,0.05926 -1.77629,1.991265 -1.77629,3.748268 0,1.57923 0.0579,3.92051 1.77629,3.92051 v 1.69637 c -0.35829,0.0579 -0.7152,0.11713 -1.06522,0.11713 -3.37206,0 -4.20164,-2.75194 -4.20164,-5.61688 0,-3.045465 1.36012,-6.263186 4.73081,-5.678898 0.17776,0.06064 0.3569,0.117136 0.53605,0.117136 m 0,14.397742 v -1.87276 c 1.53514,-0.175 1.83141,-1.05419 1.83141,-2.57555 -0.41754,0.58567 -1.06247,0.93707 -1.83141,1.11208 v -1.69637 c 1.7129,0 1.83141,-1.63986 1.83141,-3.86401 0,-2.164902 -0.2384,-3.804768 -1.71841,-3.804768 h -0.113 v -1.696364 c 3.30867,0.527787 3.84197,0.05925 5.14146,-0.584288 v 10.41659 c 0,1.52273 -0.17501,2.10702 -0.5898,2.69268 -0.8282,1.34359 -2.54386,1.87276 -4.49378,1.87276 z m 0,0"
       id="path2282"
       style="stroke-width:0.352778"
       inkscape:export-filename="path2282.svg"
       inkscape:export-xdpi="96"
       inkscape:export-ydpi="96" />
    <path
       fill-rule="nonzero"
       fill="#007dc5"
       fill-opacity="1"
       d="m 32.536071,94.389478 c 1.991265,-0.508498 2.286166,2.750566 -0.297656,3.387217 -1.269174,0.337619 -5.163509,-0.465776 -4.526855,-5.334385 0.887455,-6.815776 9.69312,-8.637545 14.13867,-3.726215 3.385841,3.726215 2.539725,11.811165 -4.954048,15.326535 9.314162,-2.7106 6.774438,-12.785434 19.602595,-10.668768 -5.039487,0.296281 -8.807041,18.582848 -24.85154,17.270958 -7.45243,-0.59118 -11.853883,-5.96829 -12.276941,-11.85251 -0.338999,-5.122167 4.90995,-11.514889 9.821276,-10.838271 -6.985275,5.166264 -3.133658,14.605831 4.065214,12.151541 3.935677,-1.31327 3.048218,-7.154772 -0.720715,-5.716102"
       id="path2284"
       style="stroke-width:0.352778" />
  </g>
</svg>
