<?xml version="1.0" encoding="UTF-8" standalone="no"?>
<!-- Created with Inkscape (http://www.inkscape.org/) -->

<svg
   width="114.56223mm"
   height="24.773888mm"
   viewBox="0 0 114.56223 24.773888"
   version="1.1"
   id="svg5"
   xml:space="preserve"
   inkscape:version="1.2.2 (b0a84865, 2022-12-01)"
   sodipodi:docname="wisefog.svg"
   xmlns:inkscape="http://www.inkscape.org/namespaces/inkscape"
   xmlns:sodipodi="http://sodipodi.sourceforge.net/DTD/sodipodi-0.dtd"
   xmlns="http://www.w3.org/2000/svg"
   xmlns:svg="http://www.w3.org/2000/svg"><sodipodi:namedview
     id="namedview7"
     pagecolor="#ffffff"
     bordercolor="#000000"
     borderopacity="0.25"
     inkscape:showpageshadow="2"
     inkscape:pageopacity="0.0"
     inkscape:pagecheckerboard="0"
     inkscape:deskcolor="#d1d1d1"
     inkscape:document-units="mm"
     showgrid="false"
     inkscape:zoom="0.914906"
     inkscape:cx="252.48495"
     inkscape:cy="561.25984"
     inkscape:window-width="2560"
     inkscape:window-height="1387"
     inkscape:window-x="0"
     inkscape:window-y="25"
     inkscape:window-maximized="0"
     inkscape:current-layer="layer1" /><defs
     id="defs2" /><g
     inkscape:label="图层 1"
     inkscape:groupmode="layer"
     id="layer1"
     transform="translate(-73.433588,-94.03565)"><path
       fill-rule="nonzero"
       fill="#007dc5"
       fill-opacity="1"
       d="m 146.00979,104.03164 c -0.94809,-0.29353 -1.95544,-0.41066 -3.13366,-0.41066 -2.13183,0 -4.43591,0.87643 -4.43591,3.2191 0,1.81487 1.1796,2.5163 2.77951,3.33623 1.18097,0.58566 1.83141,0.93569 1.83141,1.75562 0,1.11207 -0.94534,1.34496 -2.00918,1.34496 -0.94671,0 -1.83417,-0.17363 -2.83738,-0.46577 v 1.87 c 1.06247,0.23564 2.42259,0.41203 3.48781,0.41203 2.42397,0 4.73081,-0.7593 4.73081,-3.39687 0,-1.93063 -1.18374,-2.74918 -2.84152,-3.50986 -1.18098,-0.52365 -1.77215,-0.87781 -1.77215,-1.58061 0,-0.93569 0.76894,-1.17133 1.77215,-1.17133 0.83096,0 1.5999,0.11713 2.42811,0.41203 z m -9.34448,-0.23427 h -3.42994 l 0.0606,1.75424 v 9.36515 h 3.3693 z m 0.17914,-2.5728 c 0,-0.93844 -0.82957,-1.464853 -1.83554,-1.464853 -1.1231,0 -1.89343,0.526413 -1.89343,1.464853 0,0.93569 0.82958,1.40009 1.89343,1.40009 1.06522,0 1.83554,-0.4644 1.83554,-1.40009 m 15.9067,2.45704 v 1.75287 c -1.41938,0.0593 -1.59577,1.63986 -1.65502,2.98483 h 1.65502 v 1.63986 h -1.65502 c 0,1.40422 0.41203,2.57418 1.65502,3.04409 v 1.93063 c -3.6077,-0.23427 -5.14422,-2.34128 -5.14422,-5.67751 0,-2.98622 1.65641,-5.61827 5.14422,-5.67477 m -24.30584,-2.86907 -2.30546,10.82587 -2.48322,-10.82587 h -3.60908 l -2.66375,10.82587 -2.12769,-10.82587 h -3.6077 l 3.37205,14.10422 h 3.96324 l 2.60174,-10.00731 2.24758,10.00731 h 3.90536 l 3.66558,-14.10422 z m 24.30584,9.24663 v -1.63986 h 1.59439 c 0,-1.34497 -0.11576,-2.98483 -1.47726,-2.98483 h -0.11713 v -1.75287 c 0.0606,-0.0606 0.11713,-0.0606 0.23289,-0.0606 4.26227,0 4.73494,3.39548 4.73494,6.43819 z m 0,4.97472 v -1.93063 c 0.35278,0.11713 0.76619,0.17363 1.23885,0.17363 0.94947,0 2.07257,-0.17363 3.1943,-0.46577 v 1.75424 c -1.12173,0.29214 -2.42397,0.52779 -3.78271,0.52779 -0.23841,0 -0.47129,-0.0593 -0.65044,-0.0593 m 12.53739,-7.72528 c -0.11989,0.58429 -0.17777,1.23059 -0.17777,1.87413 0,0.76068 0.0579,1.4621 0.17777,2.1649 z m 0,-7.372513 v 1.754253 c -0.29352,-0.11851 -0.65043,-0.11851 -0.94947,-0.11851 -1.17822,0 -1.29811,0.58842 -1.29811,2.22553 h 1.71428 v 1.75424 h -1.71428 v 9.36515 h -3.37068 v -9.36515 h -1.18511 v -1.75424 h 1.18511 c 0,-2.69269 0.7717,-3.981153 3.72759,-3.981153 0.64906,0 1.35737,0.0593 1.89067,0.11988 m 0,1.754253 v -1.754253 c 0.062,0 0.11714,0 0.23702,0.0593 v 1.752873 c -0.11988,-0.0579 -0.17501,-0.0579 -0.23702,-0.0579 m 5.20347,1.93063 v 1.8135 c -1.83279,0 -2.00917,2.1084 -2.00917,3.68901 0,1.63848 0.11713,4.1534 2.00917,4.1534 v 1.81626 c -3.13503,0 -4.67155,-1.58061 -5.20347,-3.74551 v -4.03903 c 0.59256,-2.22278 2.36609,-3.627 5.20347,-3.68763 m 0,11.47217 v -1.81626 c 1.95406,0 2.06982,-2.22277 2.06982,-4.1534 0,-1.46072 -0.29628,-3.68901 -2.06982,-3.68901 v -1.8135 h 0.0606 c 3.72346,0 5.44049,2.34129 5.44049,5.61826 0,3.45337 -1.71703,5.85391 -5.50113,5.85391 m 12.36239,1.16995 v 1.87276 c -1.54065,0 -3.01791,-0.23289 -4.43729,-0.52917 v -1.75286 c 1.18236,0.29214 2.54386,0.46853 3.6077,0.46853 0.29353,0 0.59119,0 0.82959,-0.0593 m 0,-12.52499 v 1.69637 c -1.71842,0.0593 -1.7763,1.99126 -1.7763,3.74826 0,1.57923 0.0579,3.92052 1.7763,3.92052 v 1.69636 c -0.3583,0.0579 -0.71521,0.11714 -1.06523,0.11714 -3.37206,0 -4.20164,-2.75195 -4.20164,-5.61689 0,-3.04546 1.36013,-6.26318 4.73081,-5.67889 0.17776,0.0606 0.35691,0.11713 0.53606,0.11713 m 0,14.39775 v -1.87276 c 1.53513,-0.17501 1.83141,-1.0542 1.83141,-2.57555 -0.41755,0.58567 -1.06247,0.93706 -1.83141,1.11207 v -1.69636 c 1.7129,0 1.83141,-1.63987 1.83141,-3.86402 0,-2.1649 -0.2384,-3.80476 -1.71842,-3.80476 h -0.11299 v -1.69637 c 3.30866,0.52779 3.84196,0.0593 5.14146,-0.58428 v 10.41659 c 0,1.52273 -0.17502,2.10702 -0.58981,2.69268 -0.8282,1.34359 -2.54385,1.87276 -4.49378,1.87276 z m 0,0"
       id="path2289"
       style="fill:#7b76b6;fill-opacity:1;stroke-width:0.352778" /><path
       fill-rule="nonzero"
       fill="#007dc5"
       fill-opacity="1"
       d="m 86.614956,102.48685 c 1.99127,-0.50849 2.28617,2.75057 -0.29765,3.38722 -1.26918,0.33762 -5.16351,-0.46578 -4.52686,-5.33438 0.88746,-6.815783 9.69312,-8.637553 14.13867,-3.726223 3.38584,3.726223 2.53973,11.811173 -4.95405,15.326543 9.314174,-2.7106 6.77444,-12.785443 19.602604,-10.66877 -5.03949,0.29628 -8.80704,18.58285 -24.851544,17.27095 -7.452432,-0.59118 -11.853885,-5.96828 -12.276943,-11.8525 -0.338999,-5.12217 4.90995,-11.514893 9.821273,-10.838283 -6.985272,5.166273 -3.13365,14.605833 4.06522,12.151553 3.93567,-1.31327 3.04822,-7.15478 -0.72072,-5.71611"
       id="path2291"
       style="fill:#7b76b6;fill-opacity:1;stroke-width:0.352778" /></g></svg>
