<?xml version="1.0" encoding="UTF-8" standalone="no"?>
<!-- Created with Inkscape (http://www.inkscape.org/) -->

<svg
   width="37.144081mm"
   height="24.773888mm"
   viewBox="0 0 37.144081 24.773888"
   version="1.1"
   id="svg5"
   xml:space="preserve"
   xmlns="http://www.w3.org/2000/svg"
   xmlns:svg="http://www.w3.org/2000/svg"><defs
     id="defs2" /><g
     id="layer1"
     transform="translate(-73.433588,-94.03565)"><path
       fill-rule="nonzero"
       fill="#007dc5"
       fill-opacity="1"
       d="m 86.614956,102.48685 c 1.99127,-0.50849 2.28617,2.75057 -0.29765,3.38722 -1.26918,0.33762 -5.16351,-0.46578 -4.52686,-5.33438 0.88746,-6.815783 9.69312,-8.637553 14.13867,-3.726223 3.38584,3.726223 2.53973,11.811173 -4.95405,15.326543 9.314174,-2.7106 6.77444,-12.785443 19.602604,-10.66877 -5.03949,0.29628 -8.80704,18.58285 -24.851544,17.27095 -7.452432,-0.59118 -11.853885,-5.96828 -12.276943,-11.8525 -0.338999,-5.12217 4.90995,-11.514893 9.821273,-10.838283 -6.985272,5.166273 -3.13365,14.605833 4.06522,12.151553 3.93567,-1.31327 3.04822,-7.15478 -0.72072,-5.71611"
       id="path2291"
       style="fill:#7b76b6;fill-opacity:1;stroke-width:0.352778" /></g></svg>
